<svg xmlns="http://www.w3.org/2000/svg" width="185.588" height="178.145" viewBox="0 0 185.588 178.145">
  <g id="xmys_商家加盟" transform="translate(-63.686 -62.655)">
    <path id="联合_147" data-name="联合 147" d="M92.059,174.338l-3.045-3.066A13.722,13.722,0,0,1,72.123,169.3a13.768,13.768,0,0,1-4.064-9.76,13.955,13.955,0,0,1,.089-1.605,13.8,13.8,0,0,1-2.63.253,13.813,13.813,0,0,1-13.675-15.314,13.853,13.853,0,0,1-2.576.244,13.793,13.793,0,0,1-13.758-13.773,14.411,14.411,0,0,1,.126-1.916,13.884,13.884,0,0,1-3.089.352,13.835,13.835,0,0,1-9.762-23.56l3.579-3.622c-1.891-1.667-13.292-11.85-17.04-18.324-.1-.176-.237-.4-.4-.667a58.821,58.821,0,0,1-8.6-23.683A45.668,45.668,0,0,1,2.22,38.38,55.567,55.567,0,0,1,15.61,17C39.491-7.628,72.346,2.668,84.63,13.652c1.632,1.461,4.38,4.092,8.178,7.833,4.714-4.6,8.9-8.555,11.97-11.232C110.2,5.523,121.159,0,134.212,0c9.357,0,23.235,2.921,36.207,16.831h0c13.447,14.422,15.631,29.276,15.1,39.2-.648,11.967-5.44,21.837-9.346,26.653-2.655,3.275-9.612,10.793-13.009,14.439l2.482,2.639c5.233,5.315,5.042,14.695-.424,20.5l-.067.069a15.95,15.95,0,0,1-11.206,4.79,14.45,14.45,0,0,1-2.019-.146,16.278,16.278,0,0,1-14.9,17.935,14.088,14.088,0,0,1-2.434-.055,14.561,14.561,0,0,1,.059,2.55,16.421,16.421,0,0,1-15.02,15.032c-.3.019-.61.028-.914.028a13.982,13.982,0,0,1-1.733-.109,15.957,15.957,0,0,1-15.556,17.786A13.051,13.051,0,0,1,92.059,174.338Zm1.7-7.32,2.794,2.816c2.885,2.908,7.993,2.509,11.388-.89s3.813-8.528.93-11.437l-2.863-2.885Zm2.182-32.389L76.559,154.246a7.425,7.425,0,1,0,10.512,10.488h0l19.386-19.617a7.475,7.475,0,0,0-.038-10.526,7.384,7.384,0,0,0-10.476.038ZM79.646,119.5,60.261,139.12a7.469,7.469,0,0,0,.037,10.526,7.384,7.384,0,0,0,10.477-.038L90.16,129.99a7.473,7.473,0,0,0-.038-10.524,7.384,7.384,0,0,0-10.476.036ZM63.395,104.434,44.01,124.051a7.442,7.442,0,0,0,5.256,12.686,7.335,7.335,0,0,0,5.256-2.2l19.386-19.617a7.443,7.443,0,0,0-5.256-12.687A7.338,7.338,0,0,0,63.395,104.434ZM46.674,89.1,27.289,108.713A7.426,7.426,0,1,0,37.8,119.2L57.188,99.584A7.442,7.442,0,0,0,51.93,86.9,7.336,7.336,0,0,0,46.674,89.1Zm112.242,3.242c3.47-3.728,9.919-10.711,12.331-13.685,3.3-4.074,7.364-12.534,7.927-22.968h0C179.643,47,177.7,33.97,165.786,21.192,156.621,11.363,146,6.379,134.212,6.379c-11.3,0-20.677,4.682-25.271,8.689C96.553,25.876,64.417,59.18,55.653,68.3c4.1,3.6,13.273,10.6,22.624,10.6.467,0,.936-.017,1.391-.053l.137-.008c.107,0,11.523-.547,20.125-8.888l.046-.044L119.83,51.407Z" transform="translate(63.686 62.655)" fill="#36c45e"/>
  </g>
</svg>
